<svg width="24" height="25" viewBox="0 0 24 25" fill="none" xmlns="http://www.w3.org/2000/svg">
<path d="M15 23.6875H9C3.57 23.6875 1.25 21.3675 1.25 15.9375V9.9375C1.25 4.5075 3.57 2.1875 9 2.1875H15C20.43 2.1875 22.75 4.5075 22.75 9.9375V15.9375C22.75 21.3675 20.43 23.6875 15 23.6875ZM9 3.6875C4.39 3.6875 2.75 5.3275 2.75 9.9375V15.9375C2.75 20.5475 4.39 22.1875 9 22.1875H15C19.61 22.1875 21.25 20.5475 21.25 15.9375V9.9375C21.25 5.3275 19.61 3.6875 15 3.6875H9Z" fill="#FAFAFA"/>
<path d="M12.0006 14.0172C11.8706 14.0172 11.7406 13.9872 11.6206 13.9172L6.32061 10.8572C5.96061 10.6472 5.84059 10.1872 6.05059 9.8372C6.26059 9.4772 6.72061 9.3572 7.07061 9.5672L11.9906 12.4172L16.8806 9.5872C17.2406 9.3772 17.7006 9.5072 17.9006 9.8572C18.1006 10.2072 17.9806 10.6772 17.6306 10.8772L12.3706 13.9172C12.2606 13.9772 12.1306 14.0172 12.0006 14.0172Z" fill="#FAFAFA"/>
<path d="M12 19.4576C11.59 19.4576 11.25 19.1176 11.25 18.7076V13.2676C11.25 12.8576 11.59 12.5176 12 12.5176C12.41 12.5176 12.75 12.8576 12.75 13.2676V18.7076C12.75 19.1176 12.41 19.4576 12 19.4576Z" fill="#FAFAFA"/>
<path d="M12.0002 19.6873C11.4202 19.6873 10.8503 19.5573 10.3903 19.3073L7.19025 17.5273C6.23025 16.9973 5.49023 15.7273 5.49023 14.6273V11.2373C5.49023 10.1473 6.24025 8.8773 7.19025 8.3373L10.3903 6.5573C11.3103 6.0473 12.6902 6.0473 13.6102 6.5573L16.8102 8.3373C17.7702 8.8673 18.5103 10.1373 18.5103 11.2373V14.6273C18.5103 15.7173 17.7602 16.9873 16.8102 17.5273L13.6102 19.3073C13.1502 19.5673 12.5802 19.6873 12.0002 19.6873ZM12.0002 7.6873C11.6702 7.6873 11.3502 7.7473 11.1202 7.8773L7.92026 9.6573C7.43026 9.9273 6.99023 10.6873 6.99023 11.2373V14.6273C6.99023 15.1873 7.43026 15.9373 7.92026 16.2073L11.1202 17.9873C11.5802 18.2473 12.4202 18.2473 12.8802 17.9873L16.0802 16.2073C16.5702 15.9373 17.0103 15.1773 17.0103 14.6273V11.2373C17.0103 10.6773 16.5702 9.9273 16.0802 9.6573L12.8802 7.8773C12.6502 7.7473 12.3302 7.6873 12.0002 7.6873Z" fill="#FAFAFA"/>
</svg>
