<svg width="16" height="17" viewBox="0 0 16 17" fill="none" xmlns="http://www.w3.org/2000/svg">
<path d="M14.3137 3.4L13.4204 3.02667V9.04667L15.0404 5.14C15.3137 4.46 15.0004 3.68 14.3137 3.4ZM1.31374 5.86667L4.62041 13.8333C4.71778 14.0757 4.88387 14.2844 5.09825 14.4336C5.31264 14.5828 5.56596 14.6662 5.82708 14.6733C6.00041 14.6733 6.18041 14.64 6.35374 14.5667L11.2671 12.5333C11.7671 12.3267 12.0737 11.8333 12.0871 11.34C12.0937 11.1667 12.0604 10.9733 12.0004 10.8L8.66708 2.83333C8.57316 2.58914 8.40775 2.37896 8.19246 2.23028C7.97718 2.08161 7.72204 2.00135 7.46041 2C7.28708 2 7.11374 2.04 6.94708 2.1L2.04041 4.13333C1.71425 4.2669 1.45449 4.52452 1.31822 4.84956C1.18195 5.17459 1.18034 5.54044 1.31374 5.86667ZM12.0804 3.33333C12.0804 2.97971 11.9399 2.64057 11.6899 2.39052C11.4398 2.14048 11.1007 2 10.7471 2H9.78041L12.0804 7.56" fill="#5856D6"/>
</svg>
