<svg width="16" height="17" viewBox="0 0 16 17" fill="none" xmlns="http://www.w3.org/2000/svg">
<path d="M14.0033 1.83594H2.00326C1.64996 1.83699 1.31143 1.97781 1.06161 2.22763C0.811792 2.47745 0.670977 2.81597 0.669922 3.16927V11.1693C0.670977 11.5226 0.811792 11.8611 1.06161 12.1109C1.31143 12.3607 1.64996 12.5015 2.00326 12.5026H6.66992V13.8359H5.33659V15.1693H10.6699V13.8359H9.33659V12.5026H14.0033C14.3566 12.5015 14.6951 12.3607 14.9449 12.1109C15.1947 11.8611 15.3355 11.5226 15.3366 11.1693V3.16927C15.3355 2.81597 15.1947 2.47745 14.9449 2.22763C14.6951 1.97781 14.3566 1.83699 14.0033 1.83594ZM7.17126 9.61327L4.00459 6.4466L4.94726 5.5046L7.17126 7.7286L11.0613 3.83794L12.0046 4.78127L7.17126 9.61327Z" fill="#FF3B30"/>
</svg>
