<svg width="16" height="17" viewBox="0 0 16 17" fill="none" xmlns="http://www.w3.org/2000/svg">
<path d="M15 7.75005H14.25V3.50005C14.2499 3.31699 14.2097 3.13617 14.132 2.97038C14.0544 2.80459 13.9413 2.65788 13.8007 2.54061C13.6601 2.42335 13.4955 2.33839 13.3185 2.29174C13.1415 2.2451 12.9564 2.23791 12.7762 2.27068L2.77625 4.0888C2.48834 4.14118 2.22793 4.29292 2.0404 4.51757C1.85287 4.74222 1.7501 5.02554 1.75 5.31818V7.75005H1C0.801088 7.75005 0.610322 7.82907 0.46967 7.96972C0.329018 8.11037 0.25 8.30114 0.25 8.50005C0.25 8.69896 0.329018 8.88973 0.46967 9.03038C0.610322 9.17103 0.801088 9.25005 1 9.25005H1.75V11.6819C1.7501 11.9746 1.85287 12.2579 2.0404 12.4825C2.22793 12.7072 2.48834 12.8589 2.77625 12.9113L12.7762 14.7294C12.9564 14.7622 13.1415 14.755 13.3185 14.7084C13.4955 14.6617 13.6601 14.5768 13.8007 14.4595C13.9413 14.3422 14.0544 14.1955 14.132 14.0297C14.2097 13.8639 14.2499 13.6831 14.25 13.5001V9.25005H15C15.1989 9.25005 15.3897 9.17103 15.5303 9.03038C15.671 8.88973 15.75 8.69896 15.75 8.50005C15.75 8.30114 15.671 8.11037 15.5303 7.96972C15.3897 7.82907 15.1989 7.75005 15 7.75005ZM3.25 5.52693L12.75 3.80005V7.75005H3.25V5.52693ZM12.75 13.2001L3.25 11.4732V9.25005H12.75V13.2001Z" fill="#AF52DE"/>
</svg>
