<svg width="16" height="7" viewBox="0 0 16 7" fill="none" xmlns="http://www.w3.org/2000/svg">
<path d="M14 5.14935C14.0046 5.23776 13.9906 5.32615 13.9588 5.4088C13.9271 5.49144 13.8783 5.5665 13.8157 5.6291C13.7531 5.6917 13.6781 5.74045 13.5954 5.77219C13.5128 5.80393 13.4244 5.81795 13.336 5.81335H10.664C10.4843 5.83534 10.302 5.81613 10.1309 5.75717C9.95975 5.69821 9.80429 5.60105 9.6763 5.47305C9.54831 5.34506 9.45114 5.1896 9.39218 5.01847C9.33322 4.84733 9.31401 4.66502 9.336 4.48535V3.14935C9.3314 3.06094 9.34542 2.97255 9.37716 2.8899C9.4089 2.80726 9.45765 2.73221 9.52025 2.66961C9.58285 2.607 9.65791 2.55825 9.74055 2.52651C9.8232 2.49477 9.91159 2.48075 10 2.48535H13.336C13.4244 2.48075 13.5128 2.49477 13.5954 2.52651C13.6781 2.55825 13.7531 2.607 13.8157 2.66961C13.8783 2.73221 13.9271 2.80726 13.9588 2.8899C13.9906 2.97255 14.0046 3.06094 14 3.14935V5.14935ZM6.664 4.48535C6.68758 4.66639 6.66927 4.85042 6.61047 5.02326C6.55167 5.1961 6.45395 5.35312 6.32486 5.48221C6.19577 5.6113 6.03874 5.70902 5.86591 5.76782C5.69307 5.82662 5.50904 5.84494 5.328 5.82135H2.664C2.57559 5.82595 2.4872 5.81193 2.40455 5.78019C2.32191 5.74845 2.24685 5.6997 2.18425 5.6371C2.12165 5.5745 2.0729 5.49944 2.04116 5.4168C2.00942 5.33415 1.9954 5.24576 2 5.15735V3.14935C1.9954 3.06094 2.00942 2.97255 2.04116 2.8899C2.0729 2.80726 2.12165 2.73221 2.18425 2.66961C2.24685 2.607 2.32191 2.55825 2.40455 2.52651C2.4872 2.49477 2.57559 2.48075 2.664 2.48535H6C6.08841 2.48075 6.1768 2.49477 6.25945 2.52651C6.34209 2.55825 6.41715 2.607 6.47975 2.66961C6.54235 2.73221 6.5911 2.80726 6.62284 2.8899C6.65458 2.97255 6.6686 3.06094 6.664 3.14935V4.48535ZM0 0.645351V5.66935C0 5.71179 0.0168571 5.75248 0.0468629 5.78249C0.0768687 5.81249 0.117565 5.82935 0.16 5.82935H1.536C1.64818 6.03193 1.81289 6.20051 2.01281 6.31736C2.21273 6.43422 2.44044 6.49501 2.672 6.49335H5.336C5.74947 6.52502 6.16238 6.42526 6.5158 6.20833C6.86921 5.9914 7.14507 5.66837 7.304 5.28535C7.31407 5.25511 7.33339 5.22879 7.35923 5.21013C7.38507 5.19146 7.41612 5.1814 7.448 5.18135H8.56C8.59188 5.1814 8.62293 5.19146 8.64877 5.21013C8.67461 5.22879 8.69393 5.25511 8.704 5.28535C8.86033 5.67136 9.13508 5.99782 9.48872 6.21777C9.84236 6.43771 10.2567 6.53981 10.672 6.50935H13.336C13.776 6.50935 14.216 6.50935 14.432 5.94935C14.443 5.91973 14.4626 5.89404 14.4882 5.87553C14.5139 5.85702 14.5444 5.84652 14.576 5.84535H15.84C15.8824 5.84535 15.9231 5.82849 15.9531 5.79849C15.9831 5.76848 16 5.72779 16 5.68535V0.645351C16 0.602917 15.9831 0.56222 15.9531 0.532214C15.9231 0.502209 15.8824 0.485352 15.84 0.485352H0.16C0.117565 0.485352 0.0768687 0.502209 0.0468629 0.532214C0.0168571 0.56222 0 0.602917 0 0.645351Z" fill="#30B0C7"/>
</svg>
