<svg width="16" height="17" viewBox="0 0 16 17" fill="none" xmlns="http://www.w3.org/2000/svg">
<path d="M2.66732 5.83334H1.33398V13.8333C1.33398 14.187 1.47446 14.5261 1.72451 14.7762C1.97456 15.0262 2.3137 15.1667 2.66732 15.1667H10.6673V13.8333H2.66732V5.83334Z" fill="#0F2A71"/>
<path d="M13.3333 1.83334H5.33333C4.97971 1.83334 4.64057 1.97382 4.39052 2.22387C4.14048 2.47392 4 2.81305 4 3.16668V11.1667C4 11.5203 4.14048 11.8594 4.39052 12.1095C4.64057 12.3595 4.97971 12.5 5.33333 12.5H13.3333C13.687 12.5 14.0261 12.3595 14.2761 12.1095C14.5262 11.8594 14.6667 11.5203 14.6667 11.1667V3.16668C14.6667 2.81305 14.5262 2.47392 14.2761 2.22387C14.0261 1.97382 13.687 1.83334 13.3333 1.83334ZM7.33333 9.83334V4.50001L12 7.16668L7.33333 9.83334Z" fill="#0F2A71"/>
</svg>
